<?xml version="1.0" encoding="utf-8"?>
<!-- Generator: Adobe Illustrator 25.4.1, SVG Export Plug-In . SVG Version: 6.00 Build 0)  -->
<svg version="1.1" id="Layer_2" xmlns="http://www.w3.org/2000/svg" xmlns:xlink="http://www.w3.org/1999/xlink" x="0px" y="0px"
	 viewBox="0 0 165 135" style="enable-background:new 0 0 165 135;" xml:space="preserve">
<style type="text/css">
	.st0{fill:none;stroke:#000000;stroke-width:3;stroke-linecap:round;stroke-linejoin:round;stroke-miterlimit:10;}
</style>
<path class="st0" d="M49.4,52.7c0.1,0.4,0.4,1.5,0.3,2.2c-0.3,1.4-1.4,2.2-1.3,2.3c0.2,0.2,1.5-0.7,1.5-0.7c0.5-0.3,2.4-1.6,5-2.9"
	/>
<path class="st0" d="M90.9,50.5c-0.2,0.5-0.6,0.9-2.6,1.6c-2.3,0.8-4.2,1-4.5,1.1c-1.1,0.2-2.1,0.2-3,0.2c-1.2,0-2-0.1-2.3-0.1
	c-2.2-0.2-3.3-0.3-4.2-1.1c0,0,0,0-0.1,0c-0.1-0.1-0.2-0.2-0.3-0.3c-1-1-0.8-2-2-2.7c-1.1-0.6-2.4-0.3-3.3-0.1
	c-1.1,0.2-1.8,0.6-2.5,1c-0.4,0.2-0.8,0.3-1.1,0.5c-10-1.8-20.1-3.6-30.1-5.4c5.2-3.6,9.3-6.5,15-6.7c4.3-0.2,8.8,0.8,8.8,0.8
	c2.5,0.5,2.9,0.9,7.4,2.4c6,2,11.6,3.9,16.1,4.5c1.7,0.2,3.4,0.8,5.2,1c1.2,0.1,2.2,0.1,2.9,0.9C90.8,48.7,91.2,49.7,90.9,50.5z"/>
<path class="st0" d="M10.6,58.4c7.9-2.9,13.8-6.3,17.9-8.8c0.2-0.1,0.5-0.3,0.7-0.5"/>
<path class="st0" d="M29.1,49.2c6.8,1.2,13.5,2.3,20.3,3.5c1.8,0.3,3.6,0.6,5.4,0.9c1.8-0.9,4-1.8,6.1-2.3c1.7-0.4,2.7-0.3,4-0.7"/>
<path class="st0" d="M20.6,47.7c1.6,0.3,3.2,0.5,4.7,0.8c1.3,0.2,2.5,0.4,3.8,0.6"/>
<path class="st0" d="M97.6,58.7c-0.2,1.4-1.5,2-1.5,2.1c-3.9-0.7-7.8-1.4-11.7-2c-3.9-0.7-7.8-1.3-11.6-2h0c-0.3-0.1-0.7-0.1-1-0.2
	c1.2-1.1,2.1-3,2.2-4.6c0.1,0.1,0.2,0.2,0.3,0.3c0,0,0,0,0.1,0c0.9,0.7,2,0.8,4.2,1.1c0.3,0,1.1,0.1,2.3,0.1
	c3.2,0.6,6.3,1.1,9.5,1.7c2.1,0.4,4.3,0.8,6.5,1.1C96.8,56.3,97.8,57.3,97.6,58.7z"/>
<path class="st0" d="M21.1,42.8c1.6,0.3,3.1,0.5,4.7,0.8c3,0.5,6,1.1,9,1.6"/>
<ellipse class="st0" cx="20.9" cy="45.3" rx="1.4" ry="2.4"/>
<path class="st0" d="M25.6,43.6c0.2,0.3,0.6,1.4,0.7,2.1c0.1,1.5-0.7,2.5-0.9,2.8"/>
<path class="st0" d="M28.5,44.2c0.2,0.3,0.7,1.5,0.5,2.6c-0.2,1.2-0.8,1.9-1,2.2"/>
<path class="st0" d="M25.7,79.1c1.5-0.8,3.1-1.6,4.6-2.4c2.3-1.2,4.6-2.4,7.2-2.4"/>
<path class="st0" d="M37.4,74.3c3.9,0.2,7.9-0.9,11.3-2.7c3.4-1.9,6.4-4.6,8.9-7.6c0.7-0.9,1.5-1.9,2.4-2.6c0.9-0.6,1.9-1,2.9-1.4
	c2.7-1,6-2.3,8.7-3.3"/>
<path class="st0" d="M71.7,56.5C71.7,56.6,71.6,56.6,71.7,56.5"/>
<path class="st0" d="M55.2,66.8c-0.1,1.2,0.8,2.5,2,2.8s2.6-0.2,3.4-1.1c0.6-0.7,1-1.7,1-2.6"/>
<path class="st0" d="M60.5,61c-1,1.1-0.7,3.3,0.4,4.2c0.7,0.6,1.6,0.8,2.4,0.7c1.3-0.1,2.5-0.8,3.2-1.8c0.8-1,1-2.4,0.8-3.6"/>
<line class="st0" x1="72.7" y1="56.7" x2="72.7" y2="56.7"/>
<path class="st0" d="M72.7,56.7c0.6,0.8,0.7,2.4,0.2,3.3c-0.5,0.9-1.5,1.4-2.5,1.5c-1.6,0.2-3.4-1.1-4.3-2.5"/>
<path class="st0" d="M66.1,51.9l2.1,3.4l3.5-1.2c0.1-0.1,0.9-1.2,0.5-2.5c-0.4-1.1-1.6-1.8-3-1.7C68.1,50.6,67.1,51.2,66.1,51.9z"/>
<polyline class="st0" points="96.7,56.3 105.9,60.6 96.1,60.8 "/>
<line class="st0" x1="103.5" y1="59.8" x2="103.4" y2="60.4"/>
<path class="st0" d="M155.9,65.9l-58.3,36.2L61.7,72.6l22.7-13.9c3.9,0.7,7.8,1.3,11.7,2c0.1,0,1.3-0.6,1.5-2.1
	c0.2-1.4-0.8-2.4-0.9-2.4c-2.2-0.4-4.3-0.8-6.5-1.1L119,37.6L155.9,65.9z"/>
<path class="st0" d="M116.8,42.9c0.1,1,0.5,2.6,1.8,3.8c0.6,0.6,1.3,0.9,1.7,1.1c1.8,0.9,2.7,0.4,3.3,1.1c0.8,0.8,0.7,2.8-0.2,3.8
	c-1.6,1.6-6.3,0.7-8.2-1.9c-0.4-0.5-0.7-1.3-1.6-1.8c-0.9-0.5-2.4-0.7-2.9,0c-0.6,0.7,0.2,2.1,0.3,2.4c0.5,1,1.4,1.9,5.3,3.7
	c2.8,1.3,4.2,1.9,5.4,2c2.6,0.1,4.8-0.9,5-1c1.8-0.9,2.1-1.7,3.7-2c0.2,0,2.5-0.4,3.2,0.8c0.5,0.8,0,2-0.2,2.4c-0.4,0.9-0.9,1.3-3,3
	c-1.8,1.5-2.3,2-2.7,2.9c-0.1,0.3-0.6,1.5-0.1,2.1c0.6,0.6,2.1,0.1,2.6-0.1c1.9-0.7,2.1-1.8,4.1-3.1c1.4-0.9,2.7-1.8,4-1.4
	c1.5,0.4,2.5,2.4,2.4,4.1c-0.1,2.1-1.7,3.4-2.6,4.1c-1.3,1.1-2.6,1.5-5.3,2.2c-2.5,0.7-3.7,1.1-4.6,0.8c-2.1-0.7-1.9-2.8-4.4-4
	c-0.3-0.1-2.7-1.3-4.2-0.1c-1.2,0.9-1.4,2.8-0.9,4.1c0.6,1.4,1.9,1.4,2.6,3.1c0.2,0.4,0.6,1.4,0.1,2.3c-0.6,1.2-2.5,1.6-3.9,1.4
	c-2.5-0.3-2.7-2.3-5.2-2.7c-1.5-0.2-3.5,0.2-4.3,1.4c-0.9,1.3,0.2,2.3-0.2,5.2c-0.2,1.2-0.5,3.1-2,4.2c-1.4,1.1-3.2,0.9-4.9,0.7
	c-2.1-0.3-4.3-0.5-5.4-2.1c-1.9-2.7-0.1-8,0.7-10.1c0.5-1.4,0.9-2.3,0.6-3.3c-0.6-1.8-3.1-3.1-4.8-2.4c-0.5,0.2-0.7,0.4-1.8,1.8
	c-2.7,3.3-2.7,3.6-3.2,3.9c-1.9,1.2-5.2,0.8-6.3-0.9c-1.4-2.1,1-6.1,3.6-8c2.8-2.1,6.1-2.2,7.6-2.2c1.4,0,1.3,0.2,6.7,1
	c4.8,0.7,4.6,0.6,6,0.9c3.9,1.1,4.3,2.3,6.2,2c2-0.4,3.8-2.2,4.3-4.5c0.5-2.6-0.9-4.5-1.3-5c-0.7-0.8-1.9-1.9-2.6-1.6
	c-0.5,0.3-0.3,1.1-0.9,2.2c-0.3,0.6-0.7,1.4-1.6,1.8c-1.2,0.5-2.6-0.4-2.8-0.6"/>
</svg>
