<?xml version="1.0" encoding="utf-8"?>
<!-- Generator: Adobe Illustrator 25.4.1, SVG Export Plug-In . SVG Version: 6.00 Build 0)  -->
<svg version="1.1" id="Layer_1" xmlns="http://www.w3.org/2000/svg" xmlns:xlink="http://www.w3.org/1999/xlink" x="0px" y="0px"
	 viewBox="0 0 165 135" style="enable-background:new 0 0 165 135;" xml:space="preserve">
<style type="text/css">
	.st0{fill:none;stroke:#000000;stroke-width:3;stroke-linecap:round;stroke-linejoin:round;stroke-miterlimit:10;}
	.st1{fill:#4C4C4C;stroke:#000000;stroke-width:3;stroke-linecap:round;stroke-linejoin:round;stroke-miterlimit:10;}
</style>
<path class="st0" d="M154.2,26.4l-59.3,105l-71.6-30.9l28.3-43.9l19.4,21.1c0.3,0.3,0.7,0.4,1.1,0.5c0,0,0.1,0,0.1,0
	c0,0,0.1,0,0.1,0c0,0,0,0,0,0c0,0,0,0,0.1,0c0.2,0,0.5-0.1,0.8-0.2c0.1,0,0.2-0.1,0.3-0.1c0.1,0,0.2-0.1,0.3-0.1c0,0,0.1,0,0.1-0.1
	c0.1,0,0.1-0.1,0.2-0.1c0,0,0.1-0.1,0.1-0.1c0.2-0.1,0.3-0.3,0.5-0.4c0.2-0.1,0.3-0.3,0.4-0.5c0,0,0.1-0.1,0.1-0.1
	c0-0.1,0.1-0.1,0.1-0.2c0,0,0.1-0.1,0.1-0.1c0.1-0.1,0.1-0.2,0.2-0.3c0-0.1,0.1-0.2,0.1-0.3c0.1-0.3,0.2-0.5,0.3-0.8c0,0,0,0,0-0.1
	c0,0,0,0,0,0c0,0,0-0.1,0-0.1c0,0,0-0.1,0-0.1c0-0.4-0.1-0.8-0.4-1.1L55.2,51L86,3.3L154.2,26.4z"/>
<path class="st0" d="M13.6,5.8c0.8,0.8,0.3,2.5-1,3.7c-1.3,1.2-3,1.5-3.7,0.7c-0.8-0.8-0.3-2.5,1-3.7C11.2,5.3,12.9,5,13.6,5.8z"/>
<path class="st0" d="M13.6,5.8L16.5,9c0.3,0.3,0.4,0.7,0.4,1.1c0,0,0,0.1,0,0.1c0,0.1,0,0.1,0,0.2c0,0,0,0,0,0.1
	c0,0.2-0.1,0.5-0.3,0.8c0,0.1-0.1,0.2-0.1,0.3c0,0.1-0.1,0.2-0.2,0.3c0,0-0.1,0.1-0.1,0.1c0,0.1-0.1,0.1-0.1,0.2
	c0,0-0.1,0.1-0.1,0.1c-0.1,0.2-0.3,0.3-0.4,0.5c-0.2,0.1-0.3,0.3-0.5,0.4c0,0-0.1,0.1-0.1,0.1c-0.1,0-0.1,0.1-0.2,0.1
	c0,0-0.1,0.1-0.1,0.1c-0.1,0-0.2,0.1-0.3,0.1c-0.1,0-0.2,0.1-0.3,0.1c-0.3,0.1-0.5,0.2-0.8,0.2c0,0,0,0-0.1,0c-0.1,0-0.1,0-0.2,0
	c0,0-0.1,0-0.1,0c-0.4,0-0.8-0.2-1.1-0.5l-2.9-3.2c0.8,0.8,2.4,0.5,3.7-0.7C13.9,8.3,14.4,6.7,13.6,5.8z"/>
<path class="st0" d="M13,13.8c0.1,0,0.1,0,0.2,0C13.2,13.8,13.1,13.8,13,13.8z"/>
<path class="st0" d="M14.1,13.6c0.1,0,0.2-0.1,0.3-0.1C14.2,13.5,14.2,13.6,14.1,13.6z"/>
<path class="st0" d="M16.5,11.5c0-0.1,0.1-0.2,0.1-0.3C16.6,11.3,16.5,11.4,16.5,11.5z"/>
<path class="st0" d="M16.9,10.4c0-0.1,0-0.1,0-0.2C16.9,10.3,16.9,10.4,16.9,10.4z"/>
<path class="st0" d="M17.5,10l1,1.1c0.3,0.7,0.2,1.4-0.1,2c-0.2,0.5-0.6,1-1.1,1.4c-0.5,0.5-1,0.8-1.6,1c-0.6,0.2-1.3,0.2-2-0.2
	l-1-1.1c1.3,0.7,2.5,0.1,3.6-0.9C17.3,12.5,18,11.3,17.5,10z"/>
<path class="st0" d="M16.5,9l0.9,1c0.5,1.3-0.2,2.5-1.2,3.5c-1,1-2.3,1.5-3.6,0.9l-0.9-1c0.3,0.3,0.7,0.4,1.1,0.5c0,0,0.1,0,0.1,0
	c0,0,0.1,0,0.1,0c0,0,0,0,0,0c0,0,0,0,0.1,0c0.2,0,0.5-0.1,0.8-0.2c0.1,0,0.2-0.1,0.3-0.1c0.1,0,0.2-0.1,0.3-0.1c0,0,0.1,0,0.1-0.1
	c0.1,0,0.1-0.1,0.2-0.1c0,0,0.1-0.1,0.1-0.1c0.2-0.1,0.3-0.3,0.5-0.4c0.2-0.1,0.3-0.3,0.4-0.5c0,0,0.1-0.1,0.1-0.1
	c0-0.1,0.1-0.1,0.1-0.2c0,0,0.1-0.1,0.1-0.1c0.1-0.1,0.1-0.2,0.2-0.3c0-0.1,0.1-0.2,0.1-0.3c0.1-0.3,0.2-0.5,0.3-0.8c0,0,0,0,0-0.1
	c0,0,0,0,0,0c0,0,0-0.1,0-0.1c0,0,0-0.1,0-0.1C16.9,9.7,16.8,9.3,16.5,9z"/>
<path class="st0" d="M18.5,15.8C18.4,15.8,18.4,15.9,18.5,15.8c-0.1,0.1-0.1,0.1-0.1,0.1c-1.2,1-2.6,1.3-3.4,0.7
	c-0.1-0.1-0.1-0.1-0.2-0.2l-1-1.1c0.7,0.3,1.3,0.4,2,0.2c0.6-0.2,1.1-0.6,1.6-1c0.5-0.4,0.8-0.9,1.1-1.4c0.3-0.6,0.4-1.3,0.1-2
	l1,1.1C20.2,13,19.8,14.6,18.5,15.8z"/>
<path class="st0" d="M13.6,15.2"/>
<path class="st0" d="M81.7,84.5l-1.6-0.9c0,0,0,0,0,0l-7.8-4.6l-0.2-0.1l-0.1-0.1L72,78.6l-0.9-0.9c0.3,0.3,0.7,0.4,1.1,0.5
	c0,0,0.1,0,0.1,0c0,0,0.1,0,0.1,0c0,0,0,0,0,0c0,0,0,0,0.1,0c0.2,0,0.5-0.1,0.8-0.2c0.1,0,0.2-0.1,0.3-0.1c0.1,0,0.2-0.1,0.3-0.1
	c0,0,0.1,0,0.1-0.1c0.1,0,0.1-0.1,0.2-0.1c0,0,0.1-0.1,0.1-0.1c0.2-0.1,0.3-0.3,0.5-0.4c0.2-0.1,0.3-0.3,0.4-0.5
	c0,0,0.1-0.1,0.1-0.1c0-0.1,0.1-0.1,0.1-0.2c0,0,0.1-0.1,0.1-0.1c0.1-0.1,0.1-0.2,0.2-0.3c0-0.1,0.1-0.2,0.1-0.3
	c0.1-0.3,0.2-0.5,0.3-0.8c0,0,0,0,0-0.1c0,0,0,0,0,0c0,0,0-0.1,0-0.1c0,0,0-0.1,0-0.1c0-0.4-0.1-0.8-0.4-1.1l0.9,0.9c0,0,0,0,0,0
	l0.2,0.2l4,8.3L81.7,84.5z"/>
<path class="st0" d="M76.2,74.5c0,0,0,0.1,0,0.1c0,0,0,0.1,0,0.1c0,0,0,0,0,0c0,0,0,0,0,0.1c0,0.2-0.1,0.5-0.3,0.8
	c0,0.1-0.1,0.2-0.1,0.3c0,0.1-0.1,0.2-0.2,0.3c0,0-0.1,0.1-0.1,0.1c0,0.1-0.1,0.1-0.1,0.2c0,0-0.1,0.1-0.1,0.1
	c-0.1,0.2-0.3,0.3-0.4,0.5c-0.2,0.2-0.3,0.3-0.5,0.4c0,0-0.1,0.1-0.1,0.1c-0.1,0-0.1,0.1-0.2,0.1c0,0-0.1,0.1-0.1,0.1
	c-0.1,0-0.2,0.1-0.3,0.1c-0.1,0-0.2,0.1-0.3,0.1c-0.3,0.1-0.5,0.2-0.8,0.2c0,0,0,0-0.1,0c0,0,0,0,0,0c0,0-0.1,0-0.1,0
	c0,0-0.1,0-0.1,0c-0.4,0-0.8-0.2-1.1-0.5L51.6,56.6L14.9,16.7c0.8,0.6,2.2,0.3,3.4-0.7c0,0,0,0,0.1-0.1c0,0,0.1-0.1,0.1-0.1
	c1.3-1.2,1.7-2.8,1-3.7L55.2,51l20.6,22.4C76.1,73.6,76.2,74,76.2,74.5z"/>
<path class="st0" d="M18.3,15.9c-1.2,1-2.6,1.3-3.4,0.7l-0.2-0.2C15.5,17.3,17,17,18.3,15.9z"/>
<path class="st0" d="M77,75.4c0,0,0,0.1,0,0.1c0,0,0,0.1,0,0.1c0,0,0,0,0,0c0,0,0,0,0,0.1c0,0.2-0.1,0.5-0.3,0.8
	c0,0.1-0.1,0.2-0.1,0.3c0,0.1-0.1,0.2-0.2,0.3c0,0-0.1,0.1-0.1,0.1c0,0.1-0.1,0.1-0.1,0.2c0,0-0.1,0.1-0.1,0.1
	c-0.1,0.2-0.3,0.3-0.4,0.5c-0.2,0.2-0.3,0.3-0.5,0.4c0,0-0.1,0.1-0.1,0.1c-0.1,0-0.1,0.1-0.2,0.1c0,0-0.1,0.1-0.1,0.1
	c-0.1,0-0.2,0.1-0.3,0.1c-0.1,0-0.2,0.1-0.3,0.1c-0.3,0.1-0.5,0.2-0.8,0.2c0,0,0,0-0.1,0c0,0,0,0,0,0c0,0-0.1,0-0.1,0
	c0,0-0.1,0-0.1,0c-0.3,0-0.5-0.1-0.7-0.2c-0.1,0-0.1-0.1-0.2-0.1c-0.1-0.1-0.1-0.1-0.2-0.2l-0.9-0.9c0.3,0.3,0.7,0.4,1.1,0.5
	c0,0,0.1,0,0.1,0c0,0,0.1,0,0.1,0c0,0,0,0,0,0c0,0,0,0,0.1,0c0.2,0,0.5-0.1,0.8-0.2c0.1,0,0.2-0.1,0.3-0.1c0.1,0,0.2-0.1,0.3-0.1
	c0,0,0.1,0,0.1-0.1c0.1,0,0.1-0.1,0.2-0.1c0,0,0.1-0.1,0.1-0.1c0.2-0.1,0.3-0.3,0.5-0.4c0.2-0.1,0.3-0.3,0.4-0.5
	c0,0,0.1-0.1,0.1-0.1c0-0.1,0.1-0.1,0.1-0.2c0,0,0.1-0.1,0.1-0.1c0.1-0.1,0.1-0.2,0.2-0.3c0-0.1,0.1-0.2,0.1-0.3
	c0.1-0.3,0.2-0.5,0.3-0.8c0,0,0,0,0-0.1c0,0,0,0,0,0c0,0,0-0.1,0-0.1c0,0,0-0.1,0-0.1c0-0.4-0.1-0.8-0.4-1.1l0.9,0.9c0,0,0,0,0,0
	C76.9,74.6,77.1,75,77,75.4z"/>
<path class="st1" d="M80.9,82.9l0.8,1.6l-1.6-0.9c0.1-0.1,0.3-0.1,0.4-0.2C80.7,83.2,80.8,83.1,80.9,82.9z"/>
<path class="st0" d="M82.8,85.6c0,0,13,16.9,21.9,7.1S84.8,71.4,84.8,71.4c-7.9-5-13-10.7-12.6-14.7c0.1-0.8,0.4-3.1,2.1-4.3
	c1.3-0.9,2.8-0.8,3.3-0.7c7.5,0.6,16.8,16.3,16.8,16.3l0,0c0,0,11.8,18.8,13.1,6.5C108.9,62.2,93,49.3,93,49.3s-7.7-7.2-5-11.2
	c2.6-4,14.2,1,14.2,1s15.6,7.3,11.8,13c-3.8,5.7-14.1-5.5-14.1-5.5s-6.6-7.2,1-15.5s14.4,3.4,14.4,3.4s5.9,11,12.8,0.4
	c0.5-0.8,0.7-1.5,0.8-2.3c0.2-5-27.3-15.1-34.3-17.6"/>
</svg>
