<?xml version="1.0" encoding="utf-8"?>
<!-- Generator: Adobe Illustrator 25.4.1, SVG Export Plug-In . SVG Version: 6.00 Build 0)  -->
<svg version="1.1" id="Layer_1" xmlns="http://www.w3.org/2000/svg" xmlns:xlink="http://www.w3.org/1999/xlink" x="0px" y="0px"
	 viewBox="0 0 165 135" style="enable-background:new 0 0 165 135;" xml:space="preserve">
<style type="text/css">
	.st0{fill:none;stroke:#000000;stroke-width:3.5027;stroke-linecap:round;stroke-linejoin:round;stroke-miterlimit:10;}
</style>
<g>
	<g>
		<path class="st0" d="M74.7,38.9c0,0-7.8,5.5-3.8,21.1c3.9,15.5-7.3,21.3-7.3,21.3L45.9,92.4c0,0-12.6,7.9-23.3-3.2
			S4.2,81.6,4.2,81.6s0,0,0,0c0,0,0,0,0,0c0,0,0,0,0,0c0,0,0,0,0,0c0,0,0,0,0,0c0.1-0.1,0.4-0.6,1-1.3c0,0,0,0,0,0c0,0,0,0,0,0
			c0,0,0,0,0,0c0.7-0.8,1.4-1.6,2.1-2.3c0,0,0,0,0,0c0.2-0.2,0.4-0.3,0.6-0.5c0,0,0,0,0,0c0.1,0,0.1-0.1,0.2-0.1c0,0,0,0,0,0
			c0.1-0.1,0.2-0.1,0.3-0.2c0.1-0.1,0.3-0.2,0.4-0.3c0.2-0.2,0.5-0.3,0.7-0.4c0,0,0,0,0,0c0,0,0,0,0,0c0.3-0.2,0.5-0.3,0.8-0.4
			c0.3-0.2,0.7-0.3,1.1-0.5c0,0,0,0,0,0c0.1,0,0.1,0,0.2-0.1c0,0,0,0,0,0c0.1,0,0.1,0,0.2-0.1c0,0,0,0,0,0c0.1,0,0.1,0,0.2-0.1
			c0,0,0,0,0,0c0.2-0.1,0.4-0.1,0.5-0.1c0,0,0,0,0,0c0.5-0.1,0.9-0.2,1.4-0.2c0,0,0,0,0,0c0.3,0,0.5,0,0.8,0
			c1.3,0.1,2.5,0.5,3.7,1.1c0.6,0.3,1.1,0.7,1.7,1.1c0.2,0.2,0.5,0.4,0.7,0.6c6.3,6.1,13.9,8.6,18.3,5.5c0,0,17.9-10,20.7-12.6
			c3.6-3.9,3.9-12.4,3.2-19c-0.7-6,5.4-9.8,9.1-11.5C72.9,39.7,73.8,39.4,74.7,38.9z"/>
		<path class="st0" d="M11.7,75.3c0.1,0,0.1,0,0.2-0.1C11.9,75.2,11.8,75.3,11.7,75.3z"/>
		<path class="st0" d="M12.9,75c0.1,0,0.2,0,0.2,0C13.1,75,13,75,12.9,75z"/>
		<path class="st0" d="M13.1,74.9c0.1,0,0.2,0,0.3,0C13.4,74.9,13.2,74.9,13.1,74.9z"/>
		<path class="st0" d="M14.2,74.9c0.1,0,0.1,0,0.2,0C14.3,74.9,14.3,74.9,14.2,74.9z"/>
		<path class="st0" d="M14.8,74.9c0.1,0,0.1,0,0.2,0C14.9,74.9,14.9,74.9,14.8,74.9z"/>
		<path class="st0" d="M15.9,75c0.1,0,0.1,0,0.2,0C16,75,16,75,15.9,75z"/>
		<path class="st0" d="M16.5,75.2c0.1,0,0.1,0,0.2,0.1C16.6,75.2,16.5,75.2,16.5,75.2z"/>
		<path class="st0" d="M17.6,75.6c0.1,0,0.1,0.1,0.2,0.1C17.7,75.6,17.7,75.6,17.6,75.6z"/>
		<path class="st0" d="M70.8,40.2c-10.8,2-18.8,4.7-22.6,9.1c-5,8-11.9,11.7-19.9,11.8c-1.8,0.1-3.4,0-4.6,0.2
			C18,62.6,5.2,80.3,5.2,80.2c0,0,0,0,0,0c0,0,0,0,0,0c-0.6,0.7-0.9,1.2-1,1.3c0.4-0.7,8.5-14.1,7-25.8c-1.6-12,5.4-14.2,5.4-14.2
			s6.1-2.9,14.7,2.3C32,34.5,42,21.2,52.2,31.7C52.2,31.7,61.4,41.7,70.8,40.2z"/>
		<line class="st0" x1="4.2" y1="81.6" x2="4.2" y2="81.6"/>
		<path class="st0" d="M72,40c-3.7,1.7-9.7,5.5-9.1,11.5c0.7,6.6,0.3,15.1-3.2,19C57,73.2,39,83.1,39,83.1
			c-4.4,3.1-12.1,0.6-18.3-5.5c-0.2-0.2-0.4-0.4-0.7-0.6c-0.5-0.4-1.1-0.8-1.7-1.1c-1.1-0.6-2.4-1-3.7-1.1c-0.3,0-0.5,0-0.8,0
			c0,0,0,0,0,0c-0.5,0-1,0.1-1.4,0.2c0,0,0,0,0,0c-0.2,0-0.4,0.1-0.5,0.1c0,0,0,0,0,0c-0.1,0-0.1,0-0.2,0.1c0,0,0,0,0,0
			c-0.1,0-0.1,0-0.2,0.1c0,0,0,0,0,0c-0.1,0-0.1,0-0.2,0.1c0,0,0,0,0,0c-0.4,0.1-0.7,0.3-1.1,0.5C10,76,9.7,76.2,9.4,76.3
			c0,0,0,0,0,0c0,0,0,0,0,0c-0.2,0.1-0.5,0.3-0.7,0.4c-0.1,0.1-0.3,0.2-0.4,0.3c-0.1,0.1-0.2,0.1-0.3,0.2c0,0,0,0,0,0
			c-0.1,0-0.1,0.1-0.2,0.1c0,0,0,0,0,0c-0.2,0.2-0.4,0.3-0.6,0.5c0,0,0,0,0,0c-0.8,0.7-1.5,1.5-2.1,2.3C5.3,80.2,18,62.6,23.7,61.4
			c1.2-0.1,2.8-0.1,4.6-0.2l4.9,9.8c5.3-3,17.2-9.8,22.5-12.9c1.2-0.7,1.7-2.4,1-3.7c0,0-4.4-8.5-4.4-8.5c3.3-1.9,8.9-4.1,18.4-5.8
			c0,0,0,0,0,0C71.2,40.2,71.6,40.1,72,40z"/>
		<path class="st0" d="M72,40c1.6-0.7,2.7-1.1,2.7-1.1"/>
		<path class="st0" d="M38.6,58.6l3.6,7.3l-9,5.2l-4.9-9.8C31.3,61.1,34.9,60.6,38.6,58.6z"/>
		<path class="st0" d="M28.3,61.2l4.9,9.8l-5.5,3.1c-1.2,0.7-2.7,0.2-3.4-1.1l-4.8-9.3c1.7-1.4,3.1-2.4,4.2-2.5
			C24.9,61.3,26.5,61.3,28.3,61.2z"/>
		<path class="st0" d="M55.7,58.2l-13.5,7.7l-3.6-7.3c3.3-1.6,7.1-5.4,9.5-9.3c0,0,0.9-1.5,4.2-3.4l4.4,8.5
			C57.4,55.8,57,57.5,55.7,58.2z"/>
		<line class="st0" x1="42.2" y1="65.9" x2="42.2" y2="65.9"/>
		<line class="st0" x1="46.2" y1="52.1" x2="50.7" y2="61.1"/>
		<path class="st0" d="M62.2,65.6c-0.6,2.2-1.5,4-2.5,5C57,73.2,39,83.1,39,83.1s-3.4,2.7-9.5,0.3c-0.6-2.6,0.5-5.3,2.8-6.6
			l22.8-13.1C57.5,62.4,60.6,63.2,62.2,65.6z"/>
	</g>
	<g>
		<path class="st0" d="M160.7,80.3c0,0-8.9-2.9-17.6,10.2c-8.7,13.1-19.9,7.5-19.9,7.5L104,90.3c0,0-13.7-5.5-12.5-21.4
			c1.2-15.9-6.2-20.1-6.2-20.1s0,0,0,0c0,0,0,0,0,0c0,0,0,0,0,0c0,0,0,0,0,0c0,0,0,0,0,0c0.1,0,0.7-0.1,1.6,0c0,0,0,0,0,0
			c0,0,0,0,0,0c0,0,0,0,0,0c1,0,2,0.1,3,0.3c0,0,0,0,0,0c0.2,0,0.5,0.1,0.7,0.2c0,0,0,0,0,0c0.1,0,0.1,0,0.2,0.1c0,0,0,0,0,0
			c0.1,0,0.2,0.1,0.3,0.1c0.2,0,0.3,0.1,0.5,0.2c0.3,0.1,0.5,0.2,0.8,0.3c0,0,0,0,0,0c0,0,0,0,0,0c0.3,0.1,0.6,0.2,0.8,0.4
			c0.3,0.2,0.7,0.4,1,0.6c0,0,0,0,0,0c0.1,0,0.1,0.1,0.2,0.1c0,0,0,0,0,0c0.1,0,0.1,0.1,0.2,0.1c0,0,0,0,0,0c0.1,0,0.1,0.1,0.2,0.1
			c0,0,0,0,0,0c0.2,0.1,0.3,0.2,0.4,0.4c0,0,0,0,0,0c0.4,0.3,0.7,0.7,1,1.1c0,0,0,0,0,0c0.2,0.2,0.3,0.4,0.5,0.6
			c0.8,1.1,1.3,2.4,1.5,3.8c0.1,0.7,0.2,1.4,0.3,2.1c0,0.3,0,0.6,0,0.9c-0.4,9,2.7,17,7.7,18.7c0,0,18.5,8.6,22.2,9.2
			c5.1,0.5,11.4-4.7,15.7-9.4c3.9-4.4,10.5-1.7,14,0.2C158.9,79.4,159.8,79.9,160.7,80.3z"/>
		<path class="st0" d="M94.6,51.1c0.1,0,0.1,0.1,0.2,0.1C94.7,51.2,94.7,51.1,94.6,51.1z"/>
		<path class="st0" d="M95.6,51.9c0.1,0.1,0.1,0.1,0.2,0.2C95.7,52,95.6,51.9,95.6,51.9z"/>
		<path class="st0" d="M95.7,52c0.1,0.1,0.2,0.2,0.2,0.3C95.9,52.2,95.8,52.1,95.7,52z"/>
		<path class="st0" d="M96.5,52.9c0,0.1,0.1,0.1,0.1,0.2C96.6,53,96.5,52.9,96.5,52.9z"/>
		<path class="st0" d="M96.8,53.4c0,0.1,0.1,0.1,0.1,0.2C96.9,53.5,96.9,53.4,96.8,53.4z"/>
		<path class="st0" d="M97.4,54.4c0,0.1,0.1,0.1,0.1,0.2C97.5,54.5,97.5,54.4,97.4,54.4z"/>
		<path class="st0" d="M97.7,54.9c0,0.1,0.1,0.1,0.1,0.2C97.7,55,97.7,55,97.7,54.9z"/>
		<path class="st0" d="M98.1,56.1c0,0.1,0,0.1,0.1,0.2C98.2,56.3,98.1,56.2,98.1,56.1z"/>
		<path class="st0" d="M157.2,77.9c-8.3-7.7-15.3-12.7-20.9-13c-8.9,0.9-16-2.5-21.1-9c-1.2-1.4-2.2-2.8-3-3.7
			c-4.5-4-25.4-3.4-25.3-3.5c0,0,0,0,0,0c0,0,0,0,0,0c-0.8,0-1.4,0-1.6,0c0.7-0.1,15.5-1.9,22.9-10.6c7.6-8.9,13.6-4.5,13.6-4.5
			s5.9,3.2,7.7,13.7c7.2-5.3,23-5.5,22,9.6C151.6,57,150.3,71.1,157.2,77.9z"/>
		<line class="st0" x1="85.3" y1="48.8" x2="85.3" y2="48.8"/>
		<path class="st0" d="M158.2,78.8c-3.6-2-10.1-4.6-14-0.2c-4.3,4.7-10.6,9.8-15.7,9.4c-3.6-0.6-22.2-9.2-22.2-9.2
			c-5-1.7-8.1-9.7-7.7-18.7c0-0.3,0-0.6,0-0.9c0-0.7-0.1-1.4-0.3-2.1c-0.3-1.3-0.8-2.6-1.5-3.8c-0.2-0.2-0.3-0.4-0.5-0.6
			c0,0,0,0,0,0c-0.3-0.4-0.7-0.7-1-1.1c0,0,0,0,0,0c-0.1-0.1-0.3-0.2-0.4-0.4c0,0,0,0,0,0c-0.1,0-0.1-0.1-0.2-0.1c0,0,0,0,0,0
			c-0.1,0-0.1-0.1-0.2-0.1c0,0,0,0,0,0c-0.1,0-0.1-0.1-0.2-0.1c0,0,0,0,0,0c-0.3-0.2-0.7-0.4-1-0.6c-0.3-0.1-0.5-0.3-0.8-0.4
			c0,0,0,0,0,0c0,0,0,0,0,0c-0.2-0.1-0.5-0.2-0.8-0.3c-0.2-0.1-0.3-0.1-0.5-0.2c-0.1,0-0.2-0.1-0.3-0.1c0,0,0,0,0,0
			c-0.1,0-0.1,0-0.2-0.1c0,0,0,0,0,0c-0.2-0.1-0.5-0.1-0.7-0.2c0,0,0,0,0,0c-1-0.2-2-0.3-3-0.3c0.2,0.1,20.8-0.5,25.3,3.5
			c0.8,0.9,1.8,2.2,3,3.7l-4,10.3c5.5,2.5,17.9,8,23.6,10.6c1.3,0.6,2.8-0.1,3.3-1.5c0,0,3.3-9,3.3-9c3.4,1.5,8.6,4.8,15.9,11.7
			c0,0,0,0,0,0C157.5,78.2,157.9,78.5,158.2,78.8z"/>
		<path class="st0" d="M158.2,78.8c1.5,0.8,2.5,1.5,2.5,1.5"/>
		<path class="st0" d="M123.6,62.9l-2.9,7.6l-9.4-4.2l4-10.3C117.2,58.3,119.8,61,123.6,62.9z"/>
		<path class="st0" d="M115.2,55.9l-4,10.3l-5.7-2.6c-1.3-0.6-1.9-2.1-1.4-3.5l3.6-9.9c2.1,0.5,3.7,1.1,4.4,1.9
			C113.1,53.2,114,54.5,115.2,55.9z"/>
		<path class="st0" d="M134.8,76.8l-14.1-6.3l2.9-7.6c3.2,1.7,8.4,2.5,12.7,2c0,0,1.6-0.2,5,1.3l-3.3,9
			C137.6,76.7,136.1,77.4,134.8,76.8z"/>
		<line class="st0" x1="120.7" y1="70.5" x2="120.7" y2="70.5"/>
		<line class="st0" x1="133.1" y1="65.1" x2="129.5" y2="74.4"/>
		<path class="st0" d="M133.6,86.8c-2,0.9-3.8,1.3-5.1,1.1c-3.6-0.6-22.2-9.2-22.2-9.2s-4.1-1.1-6.3-7.7c1.5-2.1,4.2-2.9,6.5-1.9
			l23.9,10.7C132.9,81,134.3,84,133.6,86.8z"/>
	</g>
</g>
</svg>
